<?xml version="1.0" encoding="UTF-8" standalone="no"?>
<svg width="600" height="300" viewBox="0 0 600 300" xmlns="http://www.w3.org/2000/svg">
  <rect width="600" height="300" fill="#1e293b"/>
  
  <!-- Title -->
  <text x="300" y="40" font-family="Arial" font-size="18" text-anchor="middle" fill="#fff">Biodiversity Disclosure Compliance</text>
  
  <!-- Legend -->
  <rect x="440" y="70" width="16" height="16" fill="#008080"/>
  <text x="464" y="84" font-family="Arial" font-size="14" fill="#64748b">Your Company</text>
  
  <rect x="440" y="96" width="16" height="16" fill="#FFBF00"/>
  <text x="464" y="110" font-family="Arial" font-size="14" fill="#64748b">Industry Avg</text>
  
  <!-- Axes -->
  <line x1="100" y1="240" x2="500" y2="240" stroke="#64748b" stroke-width="2"/>
  <line x1="100" y1="80" x2="100" y2="240" stroke="#64748b" stroke-width="2"/>
  
  <!-- X-Axis Labels -->
  <text x="180" y="260" font-family="Arial" font-size="12" text-anchor="middle" fill="#64748b">Species</text>
  <text x="260" y="260" font-family="Arial" font-size="12" text-anchor="middle" fill="#64748b">Ecosystems</text>
  <text x="340" y="260" font-family="Arial" font-size="12" text-anchor="middle" fill="#64748b">Impact</text>
  <text x="420" y="260" font-family="Arial" font-size="12" text-anchor="middle" fill="#64748b">Mitigation</text>
  
  <!-- Y-Axis Labels -->
  <text x="90" y="240" font-family="Arial" font-size="12" text-anchor="end" fill="#64748b">0%</text>
  <text x="90" y="200" font-family="Arial" font-size="12" text-anchor="end" fill="#64748b">25%</text>
  <text x="90" y="160" font-family="Arial" font-size="12" text-anchor="end" fill="#64748b">50%</text>
  <text x="90" y="120" font-family="Arial" font-size="12" text-anchor="end" fill="#64748b">75%</text>
  <text x="90" y="80" font-family="Arial" font-size="12" text-anchor="end" fill="#64748b">100%</text>
  
  <!-- Company Data Bars -->
  <rect x="160" y="225" width="40" height="15" fill="#008080"/>
  <rect x="240" y="210" width="40" height="30" fill="#008080"/>
  <rect x="320" y="220" width="40" height="20" fill="#008080"/>
  <rect x="400" y="220" width="40" height="20" fill="#008080"/>
  
  <!-- Industry Average Bars -->
  <rect x="160" y="160" width="40" height="80" fill="#FFBF00"/>
  <rect x="240" y="130" width="40" height="110" fill="#FFBF00"/>
  <rect x="320" y="160" width="40" height="80" fill="#FFBF00"/>
  <rect x="400" y="180" width="40" height="60" fill="#FFBF00"/>
  
  <!-- Overall Score Indicator -->
  <text x="300" y="200" font-family="Arial" font-size="36" font-weight="bold" text-anchor="middle" fill="#008080">23%</text>
  <text x="300" y="220" font-family="Arial" font-size="14" text-anchor="middle" fill="#64748b">vs. Industry 68%</text>
</svg>