<?xml version="1.0" encoding="UTF-8"?>
<svg width="240" height="48" viewBox="0 0 240 48" fill="none" xmlns="http://www.w3.org/2000/svg">
  <!-- Icon section (left) -->
  <!-- Leaf background -->
  <path d="M24 4C12.9543 4 4 12.9543 4 24C4 35.0457 12.9543 44 24 44C35.0457 44 44 35.0457 44 24C44 12.9543 35.0457 4 24 4Z" fill="#2E7D32" fill-opacity="0.1"/>
  
  <!-- Trend line -->
  <path d="M8 32L16 24L24 28L32 20L40 16" stroke="#2E7D32" stroke-width="3" stroke-linecap="round" stroke-linejoin="round"/>
  
  <!-- Dot markers -->
  <circle cx="8" cy="32" r="3" fill="#2E7D32"/>
  <circle cx="16" cy="24" r="3" fill="#2E7D32"/>
  <circle cx="24" cy="28" r="3" fill="#2E7D32"/>
  <circle cx="32" cy="20" r="3" fill="#2E7D32"/>
  <circle cx="40" cy="16" r="3" fill="#2E7D32"/>
  
  <!-- Leaf element -->
  <path d="M37 11C37 11 31 17 31 27C31 37 37 43 37 43C37 43 43 37 43 27C43 17 37 11 37 11Z" fill="#2E7D32" fill-opacity="0.7"/>
  <path d="M37 11C37 11 31 17 31 27C31 37 37 43 37 43" stroke="#2E7D32" stroke-width="2" stroke-linecap="round" stroke-linejoin="round"/>
  <path d="M37 43C37 43 43 37 43 27C43 17 37 11 37 11" stroke="#2E7D32" stroke-width="2" stroke-linecap="round" stroke-linejoin="round"/>
  <path d="M37 15L31 21" stroke="#2E7D32" stroke-width="1.5" stroke-linecap="round" stroke-linejoin="round"/>
  <path d="M37 21L33 25" stroke="#2E7D32" stroke-width="1.5" stroke-linecap="round" stroke-linejoin="round"/>
  <path d="M37 27L34 30" stroke="#2E7D32" stroke-width="1.5" stroke-linecap="round" stroke-linejoin="round"/>
  <path d="M37 33L34 36" stroke="#2E7D32" stroke-width="1.5" stroke-linecap="round" stroke-linejoin="round"/>
  <path d="M37 39L35 41" stroke="#2E7D32" stroke-width="1.5" stroke-linecap="round" stroke-linejoin="round"/>
  
  <!-- Circle outline -->
  <circle cx="24" cy="24" r="20" stroke="#2E7D32" stroke-width="2" stroke-opacity="0.3"/>
  
  <!-- Text section (right) -->
  <!-- Sustaina -->
  <path d="M60.352 29.992C59.248 29.992 58.264 29.784 57.4 29.368C56.552 28.936 55.872 28.328 55.36 27.544C54.864 26.76 54.608 25.84 54.592 24.784H57.952C58 25.536 58.24 26.128 58.672 26.56C59.12 26.976 59.696 27.184 60.4 27.184C61.088 27.184 61.624 27.016 62.008 26.68C62.392 26.328 62.584 25.88 62.584 25.336C62.584 24.872 62.432 24.496 62.128 24.208C61.824 23.92 61.448 23.688 61 23.512C60.568 23.336 59.96 23.136 59.176 22.912C58.04 22.592 57.104 22.272 56.368 21.952C55.648 21.632 55.032 21.144 54.52 20.488C54.008 19.832 53.752 18.952 53.752 17.848C53.752 16.84 54 15.96 54.496 15.208C54.992 14.456 55.688 13.872 56.584 13.456C57.48 13.04 58.512 12.832 59.68 12.832C61.392 12.832 62.776 13.256 63.832 14.104C64.904 14.952 65.488 16.128 65.584 17.632H62.152C62.12 17 61.904 16.48 61.504 16.072C61.12 15.648 60.576 15.436 59.872 15.436C59.28 15.436 58.8 15.584 58.432 15.88C58.064 16.176 57.88 16.6 57.88 17.152C57.88 17.584 58.024 17.944 58.312 18.232C58.6 18.504 58.96 18.728 59.392 18.904C59.84 19.064 60.44 19.256 61.192 19.48C62.328 19.8 63.264 20.12 64 20.44C64.736 20.76 65.36 21.256 65.872 21.928C66.384 22.584 66.64 23.464 66.64 24.568C66.64 25.48 66.4 26.32 65.92 27.088C65.44 27.856 64.744 28.472 63.832 28.936C62.92 29.64 61.744 29.992 60.352 29.992ZM75.3447 29.992C73.9687 29.992 72.7207 29.688 71.6007 29.08C70.4967 28.456 69.6247 27.584 68.9847 26.464C68.3607 25.344 68.0487 24.056 68.0487 22.6C68.0487 21.16 68.3607 19.88 68.9847 18.76C69.6247 17.64 70.4967 16.776 71.6007 16.168C72.7207 15.544 73.9687 15.232 75.3447 15.232C76.7207 15.232 77.9607 15.544 79.0647 16.168C80.1847 16.776 81.0567 17.64 81.6807 18.76C82.3207 19.88 82.6407 21.16 82.6407 22.6C82.6407 24.04 82.3207 25.328 81.6807 26.464C81.0567 27.584 80.1847 28.456 79.0647 29.08C77.9607 29.688 76.7207 29.992 75.3447 29.992ZM75.3447 27.16C76.0647 27.16 76.7127 26.984 77.2887 26.632C77.8647 26.264 78.3127 25.736 78.6327 25.048C78.9527 24.36 79.1127 23.544 79.1127 22.6C79.1127 21.656 78.9527 20.848 78.6327 20.176C78.3127 19.488 77.8647 18.968 77.2887 18.616C76.7127 18.264 76.0647 18.088 75.3447 18.088C74.6247 18.088 73.9767 18.264 73.4007 18.616C72.8247 18.968 72.3767 19.488 72.0567 20.176C71.7367 20.848 71.5767 21.656 71.5767 22.6C71.5767 23.544 71.7367 24.36 72.0567 25.048C72.3767 25.736 72.8247 26.264 73.4007 26.632C73.9767 26.984 74.6247 27.16 75.3447 27.16ZM89.3699 12.04H92.8019V29.8H89.3699V12.04ZM99.4599 29.8L94.6519 15.424H98.2799L101.42 26.032H101.636L104.728 15.424H108.356L103.548 29.8H99.4599ZM114.863 29.992C113.727 29.992 112.727 29.784 111.863 29.368C110.999 28.936 110.319 28.328 109.823 27.544C109.327 26.76 109.079 25.856 109.079 24.832C109.079 23.504 109.407 22.4 110.063 21.52C110.719 20.64 111.559 20 112.583 19.6C113.607 19.184 114.655 18.976 115.727 18.976C116.639 18.976 117.399 19.064 118.007 19.24C118.631 19.4 119.231 19.64 119.807 19.96V19.48C119.807 18.584 119.503 17.904 118.895 17.44C118.287 16.96 117.439 16.72 116.351 16.72C115.439 16.72 114.671 16.896 114.047 17.248C113.423 17.584 103.5 24 107.5 22L105.911 19.72C106.831 18.856 107.871 18.224 109.031 17.824C110.191 17.408 111.431 17.2 112.751 17.2C115.071 17.2 116.855 17.76 118.103 18.88C119.351 19.984 119.975 21.568 119.975 23.632V29.8H116.831V27.808H116.687C116.319 28.4 115.783 28.88 115.079 29.248C114.391 29.744 113.551 29.992 112.559 29.992H114.863ZM115.703 27.64C116.519 27.64 117.215 27.4 117.791 26.92C118.383 26.424 118.719 25.8 118.799 25.048C118.287 24.76 117.735 24.536 117.143 24.376C116.551 24.216 115.959 24.136 115.367 24.136C114.375 24.136 113.647 24.328 113.183 24.712C112.719 25.08 112.487 25.552 112.487 26.128C112.487 26.688 112.719 27.128 113.183 27.448C113.647 27.576 114.599 27.64 115.703 27.64ZM126.842 17.392H130.274V19.936H130.442C130.762 19.056 131.322 18.36 132.122 17.848C132.938 17.32 133.89 17.056 134.978 17.056C136.082 17.056 137.05 17.32 137.882 17.848C138.73 18.376 139.29 19.088 139.562 19.984H139.73C140.114 19.088 140.722 18.376 141.554 17.848C142.402 17.32 143.402 17.056 144.554 17.056C146.09 17.056 147.346 17.528 148.322 18.472C149.298 19.4 149.786 20.824 149.786 22.744V29.8H146.354V23.224C146.354 22.168 146.114 21.4 145.634 20.92C145.154 20.424 144.514 20.176 143.714 20.176C142.85 20.176 142.162 20.448 141.65 20.992C141.138 21.52 140.882 22.248 140.882 23.176V29.8H137.45V23.128C137.45 22.136 137.202 21.4 136.706 20.92C136.226 20.424 135.578 20.176 134.762 20.176C134.218 20.176 133.722 20.32 133.274 20.608C132.842 20.88 132.498 21.264 132.242 21.76C131.986 22.256 131.858 22.824 131.858 23.464V29.8H128.426V17.392H126.842Z" fill="#2E7D32"/>
  
  <!-- Trend™ -->
  <path d="M153.36 29.8V27.88H156.672V19.312H153.36V17.392H163.632V19.312H160.32V27.88H163.632V29.8H153.36ZM166.583 29.8V17.392H170.015V19.624H170.159C170.479 18.824 170.959 18.216 171.599 17.8C172.255 17.384 173.007 17.176 173.855 17.176C174.047 17.176 174.255 17.184 174.479 17.2C174.703 17.216 174.887 17.24 175.031 17.272V20.464C174.871 20.416 174.639 20.376 174.335 20.344C174.047 20.312 173.775 20.296 173.519 20.296C172.895 20.296 172.335 20.432 171.839 20.704C171.359 20.96 170.975 21.32 170.687 21.784C170.415 22.248 170.279 22.776 170.279 23.368V29.8H166.583ZM180.996 29.992C179.86 29.992 178.86 29.784 177.996 29.368C177.132 28.936 176.452 28.328 175.956 27.544C175.46 26.76 175.212 25.856 175.212 24.832C175.212 23.504 175.54 22.4 176.196 21.52C176.852 20.64 177.692 20 178.716 19.6C179.74 19.184 180.788 18.976 181.86 18.976C182.772 18.976 183.532 19.064 184.14 19.24C184.764 19.4 185.364 19.64 185.94 19.96V19.48C185.94 18.584 185.636 17.904 185.028 17.44C184.42 16.96 183.572 16.72 182.484 16.72C181.572 16.72 180.804 16.896 180.18 17.248C179.556 17.584 172 22.5 174 21L172.044 19.72C172.964 18.856 174.004 18.224 175.164 17.824C176.324 17.408 177.564 17.2 178.884 17.2C181.204 17.2 182.988 17.76 184.236 18.88C185.484 19.984 186.108 21.568 186.108 23.632V29.8H182.964V27.808H182.82C182.452 28.4 181.916 28.88 181.212 29.248C180.524 29.744 179.684 29.992 178.692 29.992H180.996ZM181.836 27.64C182.652 27.64 183.348 27.4 183.924 26.92C184.516 26.424 184.852 25.8 184.932 25.048C184.42 24.76 183.868 24.536 183.276 24.376C182.684 24.216 182.092 24.136 181.5 24.136C180.508 24.136 179.78 24.328 179.316 24.712C178.852 25.08 178.62 25.552 178.62 26.128C178.62 26.688 178.852 27.128 179.316 27.448C179.78 27.576 180.732 27.64 181.836 27.64ZM191.054 29.8V17.392H194.486V19.936H194.654C194.99 19.056 195.55 18.376 196.334 17.896C197.118 17.416 198.022 17.176 199.046 17.176C200.07 17.176 200.966 17.416 201.734 17.896C202.518 18.376 203.062 19.056 203.366 19.936H203.534C203.902 19.04 204.51 18.36 205.358 17.896C206.222 17.416 207.222 17.176 208.358 17.176C209.862 17.176 211.07 17.648 211.982 18.592C212.894 19.52 193.5 20 193.5 22.5V29.8H190.07V23.032C190.07 22.072 189.83 21.344 189.35 20.848C188.87 20.352 188.23 20.104 187.43 20.104C186.582 20.104 185.902 20.376 185.39 20.92C184.878 21.448 184.622 22.168 184.622 23.08V29.8H181.19V23.008C181.19 22.064 180.95 21.344 180.47 20.848C179.99 20.352 179.35 20.104 178.55 20.104C177.99 20.104 177.486 20.24 177.038 20.512C176.59 20.784 176.238 21.168 175.982 21.664C175.726 22.16 175.598 22.736 175.598 23.392V29.8H172.166V17.392H191.054ZM217.088 13.48C217.088 13.992 216.901 14.448 216.528 14.848C216.181 15.221 215.728 15.408 215.168 15.408C214.629 15.408 214.176 15.221 213.808 14.848C213.44 14.448 213.256 13.992 213.256 13.48C213.256 12.941 213.44 12.488 213.808 12.12C214.176 11.752 214.629 11.568 215.168 11.568C215.728 11.568 216.181 11.752 216.528 12.12C216.901 12.488 217.088 12.941 217.088 13.48ZM213.568 29.8V17.392H216.816V29.8H213.568Z" fill="#2E7D32"/>
  
  <!-- TM symbol -->
  <path d="M218.816 15.88V14.024H223.744V15.88H222.096V20.152H220.464V15.88H218.816ZM224.611 15.88V14.024H228.643V15.128H227.411V20.152H225.851V15.128H224.611V15.88Z" fill="#2E7D32"/>
</svg>