<?xml version="1.0" encoding="UTF-8"?>
<svg width="500" height="500" version="1.1" viewBox="0 0 132.29 132.29" xmlns="http://www.w3.org/2000/svg">
 <g transform="translate(0 -164.71)">
  <g fill="#e74c3c" opacity=".9">
   <path d="m66.675 178.08c-4.1042 0-7.4516 3.3474-7.4516 7.4516 0 4.1042 3.3474 7.4516 7.4516 7.4516 4.1042 0 7.4516-3.3474 7.4516-7.4516 0-4.1042-3.3474-7.4516-7.4516-7.4516zm0 2.6194c2.6746 0 4.8322 2.1576 4.8322 4.8322 0 2.6746-2.1576 4.8322-4.8322 4.8322-2.6746 0-4.8322-2.1576-4.8322-4.8322 0-2.6746 2.1576-4.8322 4.8322-4.8322z" stroke-width=".26458"/>
   <path d="m77.822 188.7c-0.83363 0-1.5719 0.39886-2.054 1.0125-2.8342 1.7569-5.876 2.734-9.0891 2.734-3.2075 0-6.2501-0.97543-9.0891-2.7307-0.48122-0.61508-1.2208-1.0158-2.0573-1.0158-1.4435 0-2.6194 1.1759-2.6194 2.6194v6.2896c0 5.9296 3.0633 11.152 7.6853 14.173v18.718c0 1.4435 1.1759 2.6194 2.6194 2.6194h6.9226c1.4435 0 2.6194-1.1759 2.6194-2.6194v-18.722c4.6195-3.0223 7.6853-8.2414 7.6853-14.17v-6.2896c0-1.4435-1.1759-2.6194-2.6194-2.6194zm0 2.6194 2e-3 6.2896c0 5.3151-3.4223 9.876-8.1746 11.569l-1.0941 0.38909v20.943h-3.9032v-20.943l-1.0941-0.38909c-4.7523-1.6934-8.1746-6.254-8.1746-11.569v-6.2896c2.9984 1.8677 6.3947 2.8839 9.9677 2.8839 3.573 0 6.9693-1.0162 9.9677-2.8839z" stroke-width=".26458"/>
   <path d="m30.778 241.29c-0.73262 0-1.3097 0.57708-1.3097 1.3097 0 0.73262 0.57708 1.3097 1.3097 1.3097h73.234c0.73262 0 1.3097-0.57708 1.3097-1.3097 0-0.73262-0.57708-1.3097-1.3097-1.3097z" stroke-width=".26458"/>
   <path d="m40.539 233.18c-0.73262 0-1.3097 0.57708-1.3097 1.3097 0 0.73262 0.57708 1.3097 1.3097 1.3097h52.712c0.73262 0 1.3097-0.57708 1.3097-1.3097 0-0.73262-0.57708-1.3097-1.3097-1.3097z" stroke-width=".26458"/>
  </g>
  <g>
   <rect x="33.928" y="196.46" width="17.773" height="52.538" rx="3.2128" ry="3.2128" fill="#e74c3c" opacity=".2" stroke-width=".26458"/>
   <rect x="58.421" y="210.25" width="17.773" height="38.754" rx="3.2128" ry="3.2128" fill="#e74c3c" opacity=".2" stroke-width=".22712"/>
   <rect x="82.914" y="223.16" width="17.773" height="25.838" rx="3.2128" ry="3.2128" fill="#e74c3c" opacity=".2" stroke-width=".18542"/>
  </g>
  <g fill="#e74c3c" stroke-width=".26458">
   <path d="m37.14 204.07c-0.73262 0-1.3097 0.57708-1.3097 1.3097v36.247c0 0.73262 0.57708 1.3097 1.3097 1.3097h11.35c0.73262 0 1.3097-0.57708 1.3097-1.3097v-36.247c0-0.73262-0.57708-1.3097-1.3097-1.3097zm1.3097 2.6194h8.7306v33.628h-8.7306z"/>
   <path d="m61.633 216.37c-0.73262 0-1.3097 0.57708-1.3097 1.3097v23.952c0 0.73262 0.57708 1.3097 1.3097 1.3097h11.35c0.73262 0 1.3097-0.57708 1.3097-1.3097v-23.952c0-0.73262-0.57708-1.3097-1.3097-1.3097zm1.3097 2.6194h8.7306v21.333h-8.7306z"/>
   <path d="m86.127 227.52c-0.73262 0-1.3097 0.57708-1.3097 1.3097v12.804c0 0.73262 0.57708 1.3097 1.3097 1.3097h11.35c0.73262 0 1.3097-0.57708 1.3097-1.3097v-12.804c0-0.73262-0.57708-1.3097-1.3097-1.3097zm1.3097 2.6194h8.7306v10.185h-8.7306z"/>
  </g>
 </g>
</svg>