<?xml version="1.0" encoding="UTF-8" standalone="no"?>
<svg width="600" height="300" viewBox="0 0 600 300" xmlns="http://www.w3.org/2000/svg">
  <rect width="600" height="300" fill="#1e293b"/>
  
  <!-- Title -->
  <text x="300" y="40" font-family="Arial" font-size="18" text-anchor="middle" fill="#fff">Climate Transition Plan Score</text>
  
  <!-- Radar Chart Background -->
  <polygon points="300,80 400,125 400,195 300,240 200,195 200,125" 
           fill="none" stroke="#334155" stroke-width="1" stroke-dasharray="5,5"/>
  <polygon points="300,100 375,135 375,185 300,220 225,185 225,135" 
           fill="none" stroke="#334155" stroke-width="1" stroke-dasharray="5,5"/>
  <polygon points="300,120 350,145 350,175 300,200 250,175 250,145" 
           fill="none" stroke="#334155" stroke-width="1" stroke-dasharray="5,5"/>
  <polygon points="300,140 325,155 325,165 300,180 275,165 275,155" 
           fill="none" stroke="#334155" stroke-width="1" stroke-dasharray="5,5"/>
  
  <!-- Axes -->
  <line x1="300" y1="80" x2="300" y2="240" stroke="#64748b" stroke-width="1"/>
  <line x1="200" y1="195" x2="400" y2="195" stroke="#64748b" stroke-width="1"/>
  <line x1="400" y1="125" x2="200" y2="125" stroke="#64748b" stroke-width="1"/>
  <line x1="300" y1="160" x2="425" y2="160" stroke="#64748b" stroke-width="1" stroke-dasharray="5,5"/>
  
  <!-- Axis Labels -->
  <text x="300" y="70" font-family="Arial" font-size="12" text-anchor="middle" fill="#64748b">Targets</text>
  <text x="425" y="125" font-family="Arial" font-size="12" text-anchor="start" fill="#64748b">Implementation</text>
  <text x="425" y="195" font-family="Arial" font-size="12" text-anchor="start" fill="#64748b">Reporting</text>
  <text x="300" y="255" font-family="Arial" font-size="12" text-anchor="middle" fill="#64748b">Innovation</text>
  <text x="175" y="195" font-family="Arial" font-size="12" text-anchor="end" fill="#64748b">Governance</text>
  <text x="175" y="125" font-family="Arial" font-size="12" text-anchor="end" fill="#64748b">Stakeholder Engagement</text>
  
  <!-- Company Data -->
  <polygon points="300,85 385,130 390,190 300,235 210,200 220,130" 
           fill="rgba(0, 128, 128, 0.3)" stroke="#008080" stroke-width="2"/>
  
  <!-- Data Points -->
  <circle cx="300" cy="85" r="4" fill="#008080"/>
  <circle cx="385" cy="130" r="4" fill="#008080"/>
  <circle cx="390" cy="190" r="4" fill="#008080"/>
  <circle cx="300" cy="235" r="4" fill="#008080"/>
  <circle cx="210" cy="200" r="4" fill="#008080"/>
  <circle cx="220" cy="130" r="4" fill="#008080"/>
  
  <!-- Overall Score -->
  <circle cx="440" cy="80" r="30" fill="rgba(0, 128, 128, 0.2)" stroke="#008080" stroke-width="2"/>
  <text x="440" y="85" font-family="Arial" font-size="16" font-weight="bold" text-anchor="middle" fill="#008080">92%</text>
  
  <!-- Industry Comparison -->
  <text x="300" y="280" font-family="Arial" font-size="14" text-anchor="middle" fill="#FFBF00">Top Quartile Performance</text>
</svg>